<svg viewBox="0 23.50326797385621 95.887 114.86274509803921" version="1.1" xmlns="http://www.w3.org/2000/svg" id="Layer_1" style="max-height: 500px" width="95.887" height="114.86274509803921">
  
  <defs>
    <style>
      .st0 {
        fill: #6bc04b;
      }

      .st1 {
        fill: #fff;
      }
    </style>
  </defs>
  <path d="M276.4.9v134.2h-17V.9h17ZM103.9,38.5v15.3c0,.3,0,.6,0,.9v80.3h17v-48.5c0-14.3,4-22.4,11-28h.1c4.2-3.4,9.5-5.1,15.8-5.1,17,0,19.1,15.5,19.1,23.7v57.9h17v-48.4c0-14.3,4-22.4,11-28h.1c4.2-3.4,9.5-5.1,15.8-5.1,18.2,0,19.1,15.5,19.1,23.7v57.9h17.1v-61.2c0-5.9-1.1-11.8-3.3-17.3-2.2-5.4-5.8-10.1-10.4-13.5-4.7-3.5-10.5-5.3-17.5-5.3-15.2,0-26.7,6.4-34.5,19.3-2.2-5.5-5.9-10.2-10.6-13.7-5-3.8-11-5.6-18-5.6s-14.3,1.6-19.2,4.9c-5,3.3-9.3,7.5-12.6,12.4v-16.5h-17.2Z" class="st1"/>
  <path d="M35.4,64.4c2.6,1,5.3,1.7,8.1,2.2.8-5.5,1.3-16.9-4.3-24.7-3.4-4.8-8.9-7.8-13.8-9.6-2.6-1-5.3-1.7-8.1-2.2-.8,5.5-1.3,16.9,4.3,24.7,3.5,4.8,8.9,7.8,13.8,9.6Z" class="st0"/>
  <path d="M379,135.3s0-51,0-51.3c0-23.6-13.4-45.8-44.7-45.8s-45.7,10.1-45.7,48.7,17.8,48.1,44.3,48.1,21.1-4.4,29.5-11.7v12h16.7ZM356.8,107.7c-9.9,13.2-29.2,16.2-41.8,5-12.2-10.8-14.5-32.1-5.1-45.4,10.4-14.8,30.4-16.6,44.1-5.5,12.3,10.7,12.1,33.5,2.7,45.9Z" class="st1"/>
  <path d="M87.9,27.7c-4-.7-8.1-1-12.2-1-7.8,0-16.9,1.3-24.1,6.2-3,2-5.7,4.6-7.9,7.5,5.3,8.3,5.2,18.9,4.6,25.4,0,.3,0,.6,0,.9,7.3-.2,15.3-1.8,21.9-6.2,12.1-8,17-23.9,18.9-32.5l-1.2-.2Z" class="st0"/>
  <path d="M92.8,134.9s0-51.1,0-51.4c0-11.8-3.7-21.7-9.8-29.4-2.8,4-6.3,7.4-10.3,10.2-.6.4-1.2.8-1.8,1.1,4.4,5.7,6.8,12.6,6.8,19.8v2.3c0,17-13.5,31.6-30.1,32.1h-.9c-17.9,0-30.6-14.9-30.6-33.3-.1-8.3,2.7-16.3,7.9-22.7-4.9-3.4-8.4-8.4-10-14.2C3.9,59.8,0,74.7,0,86.5c0,27.2,18.2,49.3,45.5,49.3s21.7-4.5,30.3-12v11h17.1Z" class="st1"/>
  <path d="M25.6,144.8c2.5,2,4.2,5,4.7,8.2h-4.1c-.2-1.1-.5-2.2-1.1-3.2-.6-1-1.4-1.8-2.3-2.5-2-1.4-4.4-2.2-6.8-2.1-1.9,0-3.8.4-5.4,1.3-1.7.9-3.1,2.4-4,4.1-1,2.1-1.5,4.5-1.5,6.8s.5,4.7,1.5,6.8c.9,1.7,2.3,3.2,4,4.1,1.7.9,3.5,1.4,5.4,1.3,2.4,0,4.8-.6,6.8-2.1.9-.7,1.7-1.5,2.3-2.5.6-1,1-2.1,1.1-3.2h4.1c-.5,3.2-2.1,6.1-4.7,8.2-2.8,2.1-6.2,3.2-9.7,3.1-2.7,0-5.4-.6-7.7-1.9-2.3-1.2-4.1-3.1-5.3-5.4-1.3-2.6-1.9-5.5-1.9-8.4s.6-5.8,1.9-8.4c1.2-2.3,3-4.2,5.3-5.4,2.4-1.3,5-1.9,7.7-1.9,3.5-.1,6.9,1,9.6,3.1ZM69,143.6c2.3,1.2,4.2,3.1,5.4,5.4,1.3,2.6,2,5.5,2,8.4s-.7,5.8-2,8.4c-1.2,2.3-3.1,4.2-5.4,5.4-2.4,1.3-5.1,1.9-7.8,1.9-2.7,0-5.4-.6-7.8-1.9-2.3-1.3-4.2-3.2-5.5-5.5-1.3-2.6-2-5.4-2-8.3s.7-5.8,2-8.3c1.3-2.3,3.1-4.2,5.4-5.4,2.4-1.3,5.1-1.9,7.8-1.9,2.7,0,5.4.6,7.8,1.9ZM55.6,146.5c-1.8.9-3.2,2.4-4.1,4.1-1.1,2.1-1.6,4.4-1.6,6.8,0,2.4.5,4.7,1.6,6.8.9,1.7,2.4,3.2,4.1,4.1,1.7.9,3.6,1.4,5.6,1.3,1.9,0,3.8-.4,5.5-1.3,1.7-.9,3.2-2.4,4.1-4.1,1.1-2.1,1.6-4.4,1.6-6.8,0-2.4-.5-4.7-1.6-6.8-.9-1.7-2.4-3.2-4.1-4.1-1.7-.9-3.6-1.4-5.5-1.3-1.9,0-3.9.4-5.6,1.3ZM139,145c2.2,2.3,3.3,5.6,3.3,9.9v17.8h-3.9v-17.5c0-3.3-.8-5.8-2.4-7.6-.8-.9-1.8-1.6-3-2-1.1-.5-2.3-.7-3.5-.6-1.3,0-2.6.2-3.8.7-1.2.5-2.3,1.3-3.2,2.2-1.7,1.9-2.6,4.8-2.6,8.6v16.2h-3.9v-17.5c0-3.3-.8-5.8-2.4-7.6-.8-.9-1.8-1.6-3-2-1.1-.5-2.3-.7-3.5-.6-1.3,0-2.6.2-3.8.7-1.2.5-2.3,1.3-3.2,2.2-1.7,1.9-2.6,4.8-2.6,8.6v16.2h-4v-30.6h4v7.3c.6-2.4,2-4.5,4.1-5.9,2-1.3,4.4-2,6.8-2,2.5,0,4.9.7,6.9,2.1,2,1.6,3.5,3.8,4,6.3.7-2.5,2.2-4.7,4.3-6.2,2-1.4,4.5-2.2,7-2.2,1.6,0,3.2.2,4.6.8,1.5.6,2.8,1.5,3.9,2.6ZM206.1,145c2.2,2.3,3.3,5.6,3.3,9.9v17.8h-3.9v-17.5c0-3.3-.8-5.8-2.4-7.6-.8-.9-1.8-1.6-3-2-1.1-.5-2.3-.7-3.5-.6-1.3,0-2.6.2-3.8.7-1.2.5-2.3,1.3-3.2,2.2-1.7,1.9-2.6,4.8-2.6,8.5v16.2h-3.9v-17.5c0-3.3-.8-5.8-2.4-7.6-.8-.9-1.8-1.6-3-2-1.1-.5-2.3-.7-3.5-.6-1.3,0-2.6.2-3.8.7-1.2.5-2.3,1.3-3.2,2.2-1.8,1.9-2.6,4.8-2.6,8.6v16.2h-4v-30.6h4v7.3c.6-2.4,2-4.5,4.1-5.9,2-1.3,4.4-2,6.8-2,2.5,0,4.9.7,6.9,2.1,2,1.6,3.4,3.8,4,6.3.7-2.5,2.2-4.7,4.3-6.2,2-1.4,4.5-2.2,7-2.2,1.6,0,3.1.2,4.6.8,1.5.6,2.8,1.5,3.9,2.6ZM247.9,167.8c.9-.7,1.7-1.5,2.2-2.5.6-1,1-2,1.1-3.1h4.1c-.5,3.1-2.2,5.9-4.6,7.9-2.5,2-5.7,3-9.6,3-2.7,0-5.4-.6-7.7-1.9-2.3-1.2-4.1-3.1-5.3-5.4-1.3-2.6-1.9-5.5-1.9-8.4s.7-5.8,1.9-8.4c1.2-2.3,3-4.2,5.3-5.4,2.4-1.3,5-1.9,7.7-1.9,2.7,0,5.4.6,7.7,1.9,2.1,1.2,3.8,2.9,5,5,1.1,2.1,1.7,4.5,1.7,6.9,0,1,0,1.9-.2,2.9h-25.3c0,2.3.5,4.5,1.6,6.5.9,1.6,2.3,3,4,3.8,1.7.8,3.5,1.2,5.3,1.2,2.5,0,4.9-.6,6.9-2ZM235.7,146.2c-1.7.9-3.1,2.2-4,3.8-1.1,1.9-1.7,4.1-1.6,6.3h21.6c.2-2.2-.2-4.4-1.2-6.3-.9-1.6-2.3-3-3.9-3.8-1.7-.8-3.5-1.2-5.4-1.2s-3.7.4-5.4,1.2h0ZM280.9,143.4c2.2-1.3,4.7-1.9,7.2-1.8v4.3h-1.3c-2.6-.1-5.2.7-7.3,2.4-1.9,1.6-2.9,4.2-2.9,7.7v16.7h-4v-30.6h4v6.3c.8-2.1,2.3-3.9,4.3-5.1ZM326.5,144.8c2.5,2,4.2,5,4.7,8.2h-4.1c-.2-1.1-.5-2.2-1.1-3.2-.6-1-1.4-1.8-2.3-2.5-2-1.4-4.4-2.2-6.8-2.1-1.9,0-3.8.4-5.4,1.3-1.7.9-3.1,2.4-4,4.1-1,2.1-1.5,4.5-1.5,6.8s.5,4.7,1.5,6.8c.9,1.7,2.3,3.2,4,4.1,1.7.9,3.5,1.4,5.4,1.3,2.4,0,4.9-.7,6.8-2.1.9-.7,1.7-1.5,2.3-2.5.6-1,1-2.1,1.1-3.2h4.1c-.5,3.2-2.1,6.1-4.7,8.2-2.8,2.1-6.2,3.2-9.6,3.1-2.7,0-5.4-.6-7.7-1.9-2.3-1.3-4.1-3.1-5.3-5.4-1.3-2.6-1.9-5.5-1.9-8.4s.6-5.8,1.9-8.4c1.2-2.3,3-4.2,5.3-5.4,2.4-1.3,5-1.9,7.7-1.9,3.5-.1,6.9,1,9.6,3.1ZM368.5,167.8c.9-.7,1.7-1.5,2.2-2.5.6-1,1-2,1.1-3.1h4.1c-.5,3.1-2.1,5.9-4.6,7.9-2.5,2-5.7,3-9.6,3-2.7,0-5.4-.6-7.7-1.9-2.3-1.2-4.1-3.1-5.3-5.4-1.3-2.6-1.9-5.5-1.9-8.4s.6-5.8,1.9-8.4c1.2-2.3,3-4.2,5.3-5.4,2.4-1.3,5-2,7.7-1.9,2.7,0,5.4.6,7.7,1.9,2.1,1.2,3.8,2.9,5,5,1.1,2.1,1.7,4.5,1.7,6.9,0,1,0,1.9-.2,2.9h-25.3c0,2.3.5,4.5,1.6,6.5.9,1.6,2.3,3,4,3.8,1.7.8,3.5,1.2,5.3,1.2,2.5,0,4.9-.6,6.9-2ZM356.3,146.2c-1.7.9-3.1,2.2-4,3.8-1.1,1.9-1.7,4.1-1.6,6.3h21.6c.2-2.2-.2-4.4-1.2-6.3-.9-1.6-2.3-3-3.9-3.8-1.7-.8-3.5-1.2-5.4-1.2s-3.7.4-5.4,1.2h0Z" class="st1"/>
</svg>